ffmpeg started on 2025-03-19 at 14:38:42
Report written to "D:\Convert\FFMetrics\reports\vmaf_report-6.txt"
Log level: 32
Command line:
ffmpeg -hide_banner -nostdin -r 25/1 -i "E:\\Convert\\out\\[DC] Welcome to Japan Ms.Elf - 01_Telegram (720p_HEVC).mkv" -r 25/1 -i "E:\\Convert\\files\\[DC] Welcome to Japan Ms.Elf - 01_Telegram.mp4" -lavfi "[0:v]settb=AVTB,setpts=PTS-STARTPTS,format=pix_fmts=yuv420p,fps=25/1,scale=1920:1080:flags=bicubic[main];[1:v]settb=AVTB,setpts=PTS-STARTPTS,format=pix_fmts=yuv420p,fps=25/1,scale=1920:1080:flags=bicubic[ref];[main][ref]libvmaf=eof_action=endall:log_path='D\\:/Convert/FFMetrics/logs/vmaf_logfile-6.txt':n_threads=32:pool=Mean:model=version=vmaf_v0.6.1" -f null -
Input #0, matroska,webm, from 'E:\Convert\out\[DC] Welcome to Japan Ms.Elf - 01_Telegram (720p_HEVC).mkv':
  Metadata:
    COMPATIBLE_BRANDS: isomiso2avc1mp41
    MAJOR_BRAND     : isom
    MINOR_VERSION   : 512
    ENCODER         : Lavf61.7.100
  Duration: 00:23:47.65, start: -0.046000, bitrate: 1535 kb/s
  Stream #0:0: Video: hevc (Main), yuv420p(tv, bt709, progressive), 1274x720 [SAR 640:637 DAR 16:9], 25 fps, 25 tbr, 1k tbn (default)
      Metadata:
        HANDLER_NAME    : VideoHandler
        VENDOR_ID       : [0][0][0][0]
        ENCODER         : Lavc61.19.100 libx265
        BPS             : 1388441
        DURATION        : 00:23:46.480000000
        NUMBER_OF_FRAMES: 35662
        NUMBER_OF_BYTES : 247572953
        _STATISTICS_WRITING_APP: mkvpropedit v66.0.0 ('Josie') 64-bit
        _STATISTICS_WRITING_DATE_UTC: 2025-02-15 15:28:00
        _STATISTICS_TAGS: BPS DURATION NUMBER_OF_FRAMES NUMBER_OF_BYTES
  Stream #0:1: Audio: aac (LC), 44100 Hz, stereo, fltp (default)
      Metadata:
        HANDLER_NAME    : SoundHandler
        VENDOR_ID       : [0][0][0][0]
        ENCODER         : Lavc61.19.100 libfdk_aac
        BPS             : 144002
        DURATION        : 00:23:47.632000000
        NUMBER_OF_FRAMES: 61484
        NUMBER_OF_BYTES : 25697803
        _STATISTICS_WRITING_APP: mkvpropedit v66.0.0 ('Josie') 64-bit
        _STATISTICS_WRITING_DATE_UTC: 2025-02-15 15:28:00
        _STATISTICS_TAGS: BPS DURATION NUMBER_OF_FRAMES NUMBER_OF_BYTES
Input #1, mov,mp4,m4a,3gp,3g2,mj2, from 'E:\Convert\files\[DC] Welcome to Japan Ms.Elf - 01_Telegram.mp4':
  Metadata:
    major_brand     : isom
    minor_version   : 512
    compatible_brands: isomiso2avc1mp41
    encoder         : Lavf61.1.100
  Duration: 00:23:47.60, start: 0.000000, bitrate: 3783 kb/s
  Stream #1:0[0x1](und): Video: h264 (High) (avc1 / 0x31637661), yuv420p(tv, bt709, progressive), 1920x1080 [SAR 1:1 DAR 16:9], 3638 kb/s, 23.98 fps, 23.98 tbr, 18965 tbn (default)
      Metadata:
        handler_name    : VideoHandler
        vendor_id       : [0][0][0][0]
        encoder         : Lavc61.3.100 h264_qsv
  Stream #1:1[0x2](und): Audio: aac (HE-AACv2) (mp4a / 0x6134706D), 48000 Hz, stereo, fltp, 144 kb/s (default)
      Metadata:
        handler_name    : SoundHandler
        vendor_id       : [0][0][0][0]
Stream mapping:
  Stream #0:0 (hevc) -> settb:default
  Stream #1:0 (h264) -> settb:default
  libvmaf:default -> Stream #0:0 (wrapped_avframe)
  Stream #0:1 -> #0:1 (aac (native) -> pcm_s16le (native))
Output #0, null, to 'pipe:':
  Metadata:
    COMPATIBLE_BRANDS: isomiso2avc1mp41
    MAJOR_BRAND     : isom
    MINOR_VERSION   : 512
    encoder         : Lavf61.7.100
  Stream #0:0: Video: wrapped_avframe, yuv420p(tv, bt709, progressive), 1920x1080 [SAR 1:1 DAR 16:9], q=2-31, 200 kb/s, 25 fps, 25 tbn
      Metadata:
        encoder         : Lavc61.19.100 wrapped_avframe
  Stream #0:1: Audio: pcm_s16le, 44100 Hz, stereo, s16, 1411 kb/s (default)
      Metadata:
        HANDLER_NAME    : SoundHandler
        VENDOR_ID       : [0][0][0][0]
        _STATISTICS_TAGS: BPS DURATION NUMBER_OF_FRAMES NUMBER_OF_BYTES
        BPS             : 144002
        DURATION        : 00:23:47.632000000
        NUMBER_OF_FRAMES: 61484
        NUMBER_OF_BYTES : 25697803
        _STATISTICS_WRITING_APP: mkvpropedit v66.0.0 ('Josie') 64-bit
        _STATISTICS_WRITING_DATE_UTC: 2025-02-15 15:28:00
        encoder         : Lavc61.19.100 pcm_s16le
frame=   47 fps=0.0 q=-0.0 size=N/A time=00:00:01.88 bitrate=N/A speed=3.69x    frame=  100 fps= 97 q=-0.0 size=N/A time=00:00:04.00 bitrate=N/A speed=3.87x    frame=  153 fps= 98 q=-0.0 size=N/A time=00:00:06.12 bitrate=N/A speed=3.93x    frame=  204 fps= 99 q=-0.0 size=N/A time=00:00:08.16 bitrate=N/A speed=3.94x    frame=  257 fps= 99 q=-0.0 size=N/A time=00:00:10.28 bitrate=N/A speed=3.96x    frame=  309 fps= 99 q=-0.0 size=N/A time=00:00:12.36 bitrate=N/A speed=3.98x    frame=  362 fps=100 q=-0.0 size=N/A time=00:00:14.48 bitrate=N/A speed=   4x    frame=  415 fps=100 q=-0.0 size=N/A time=00:00:16.60 bitrate=N/A speed=4.01x    frame=  467 fps=100 q=-0.0 size=N/A time=00:00:18.68 bitrate=N/A speed=4.01x    frame=  518 fps=100 q=-0.0 size=N/A time=00:00:20.72 bitrate=N/A speed=4.01x    frame=  571 fps=100 q=-0.0 size=N/A time=00:00:22.84 bitrate=N/A speed=4.02x    frame=  621 fps=100 q=-0.0 size=N/A time=00:00:24.84 bitrate=N/A speed=4.01x    frame=  675 fps=100 q=-0.0 size=N/A time=00:00:27.00 bitrate=N/A speed=4.02x    frame=  725 fps=100 q=-0.0 size=N/A time=00:00:29.00 bitrate=N/A speed=4.01x    frame=  779 fps=101 q=-0.0 size=N/A time=00:00:31.16 bitrate=N/A speed=4.02x    frame=  828 fps=100 q=-0.0 size=N/A time=00:00:33.12 bitrate=N/A speed=4.01x    frame=  881 fps=100 q=-0.0 size=N/A time=00:00:35.24 bitrate=N/A speed=4.01x    frame=  930 fps=100 q=-0.0 size=N/A time=00:00:37.20 bitrate=N/A speed=   4x    frame=  983 fps=100 q=-0.0 size=N/A time=00:00:39.32 bitrate=N/A speed=4.01x    frame= 1034 fps=100 q=-0.0 size=N/A time=00:00:41.36 bitrate=N/A speed=   4x    frame= 1088 fps=100 q=-0.0 size=N/A time=00:00:43.52 bitrate=N/A speed=4.02x    frame= 1137 fps=100 q=-0.0 size=N/A time=00:00:45.48 bitrate=N/A speed=4.01x    frame= 1192 fps=100 q=-0.0 size=N/A time=00:00:47.68 bitrate=N/A speed=4.01x    frame= 1242 fps=100 q=-0.0 size=N/A time=00:00:49.68 bitrate=N/A speed=4.01x    frame= 1293 fps=100 q=-0.0 size=N/A time=00:00:51.72 bitrate=N/A speed=4.01x    frame= 1344 fps=100 q=-0.0 size=N/A time=00:00:53.76 bitrate=N/A speed=4.01x    frame= 1396 fps=100 q=-0.0 size=N/A time=00:00:55.84 bitrate=N/A speed=4.01x    frame= 1444 fps=100 q=-0.0 size=N/A time=00:00:57.76 bitrate=N/A speed=   4x    frame= 1498 fps=100 q=-0.0 size=N/A time=00:00:59.92 bitrate=N/A speed=   4x    frame= 1548 fps=100 q=-0.0 size=N/A time=00:01:01.92 bitrate=N/A speed=   4x    frame= 1601 fps=100 q=-0.0 size=N/A time=00:01:04.04 bitrate=N/A speed=   4x    frame= 1651 fps=100 q=-0.0 size=N/A time=00:01:06.04 bitrate=N/A speed=   4x    frame= 1704 fps=100 q=-0.0 size=N/A time=00:01:08.16 bitrate=N/A speed=   4x    frame= 1756 fps=100 q=-0.0 size=N/A time=00:01:10.24 bitrate=N/A speed=   4x    frame= 1807 fps=100 q=-0.0 size=N/A time=00:01:12.28 bitrate=N/A speed=   4x    frame= 1859 fps=100 q=-0.0 size=N/A time=00:01:14.36 bitrate=N/A speed=   4x    frame= 1910 fps=100 q=-0.0 size=N/A time=00:01:16.40 bitrate=N/A speed=   4x    frame= 1963 fps=100 q=-0.0 size=N/A time=00:01:18.52 bitrate=N/A speed=   4x    frame= 2013 fps=100 q=-0.0 size=N/A time=00:01:20.52 bitrate=N/A speed=   4x    frame= 2068 fps=100 q=-0.0 size=N/A time=00:01:22.72 bitrate=N/A speed=4.01x    frame= 2118 fps=100 q=-0.0 size=N/A time=00:01:24.72 bitrate=N/A speed=   4x    frame= 2171 fps=100 q=-0.0 size=N/A time=00:01:26.84 bitrate=N/A speed=4.01x    frame= 2223 fps=100 q=-0.0 size=N/A time=00:01:28.92 bitrate=N/A speed=4.01x    frame= 2277 fps=100 q=-0.0 size=N/A time=00:01:31.08 bitrate=N/A speed=4.01x    frame= 2326 fps=100 q=-0.0 size=N/A time=00:01:33.04 bitrate=N/A speed=4.01x    frame= 2381 fps=100 q=-0.0 size=N/A time=00:01:35.24 bitrate=N/A speed=4.01x    frame= 2429 fps=100 q=-0.0 size=N/A time=00:01:37.16 bitrate=N/A speed=4.01x    frame= 2482 fps=100 q=-0.0 size=N/A time=00:01:39.28 bitrate=N/A speed=4.01x    frame= 2532 fps=100 q=-0.0 size=N/A time=00:01:41.28 bitrate=N/A speed=   4x    frame= 2585 fps=100 q=-0.0 size=N/A time=00:01:43.40 bitrate=N/A speed=4.01x    frame= 2636 fps=100 q=-0.0 size=N/A time=00:01:45.44 bitrate=N/A speed=4.01x    frame= 2689 fps=100 q=-0.0 size=N/A time=00:01:47.56 bitrate=N/A speed=4.01x    frame= 2739 fps=100 q=-0.0 size=N/A time=00:01:49.56 bitrate=N/A speed=4.01x    frame= 2791 fps=100 q=-0.0 size=N/A time=00:01:51.64 bitrate=N/A speed=4.01x    frame= 2842 fps=100 q=-0.0 size=N/A time=00:01:53.68 bitrate=N/A speed=4.01x    frame= 2896 fps=100 q=-0.0 size=N/A time=00:01:55.84 bitrate=N/A speed=4.01x    frame= 2945 fps=100 q=-0.0 size=N/A time=00:01:57.80 bitrate=N/A speed=   4x    frame= 3000 fps=100 q=-0.0 size=N/A time=00:02:00.00 bitrate=N/A speed=4.01x    frame= 3049 fps=100 q=-0.0 size=N/A time=00:02:01.96 bitrate=N/A speed=4.01x    frame= 3101 fps=100 q=-0.0 size=N/A time=00:02:04.04 bitrate=N/A speed=4.01x    frame= 3152 fps=100 q=-0.0 size=N/A time=00:02:06.08 bitrate=N/A speed=   4x    frame= 3204 fps=100 q=-0.0 size=N/A time=00:02:08.16 bitrate=N/A speed=4.01x    frame= 3255 fps=100 q=-0.0 size=N/A time=00:02:10.20 bitrate=N/A speed=4.01x    frame= 3308 fps=100 q=-0.0 size=N/A time=00:02:12.32 bitrate=N/A speed=4.01x    frame= 3359 fps=100 q=-0.0 size=N/A time=00:02:14.36 bitrate=N/A speed=4.01x    frame= 3410 fps=100 q=-0.0 size=N/A time=00:02:16.40 bitrate=N/A speed=4.01x    frame= 3462 fps=100 q=-0.0 size=N/A time=00:02:18.48 bitrate=N/A speed=   4x    frame= 3513 fps=100 q=-0.0 size=N/A time=00:02:20.52 bitrate=N/A speed=   4x    frame= 3565 fps=100 q=-0.0 size=N/A time=00:02:22.60 bitrate=N/A speed=4.01x    frame= 3613 fps=100 q=-0.0 size=N/A time=00:02:24.52 bitrate=N/A speed=   4x    frame= 3667 fps=100 q=-0.0 size=N/A time=00:02:26.68 bitrate=N/A speed=   4x    frame= 3717 fps=100 q=-0.0 size=N/A time=00:02:28.68 bitrate=N/A speed=   4x    frame= 3771 fps=100 q=-0.0 size=N/A time=00:02:30.84 bitrate=N/A speed=4.01x    frame= 3822 fps=100 q=-0.0 size=N/A time=00:02:32.88 bitrate=N/A speed=   4x    frame= 3875 fps=100 q=-0.0 size=N/A time=00:02:35.00 bitrate=N/A speed=4.01x    frame= 3925 fps=100 q=-0.0 size=N/A time=00:02:37.00 bitrate=N/A speed=   4x    frame= 3979 fps=100 q=-0.0 size=N/A time=00:02:39.16 bitrate=N/A speed=4.01x    frame= 4028 fps=100 q=-0.0 size=N/A time=00:02:41.12 bitrate=N/A speed=   4x    frame= 4080 fps=100 q=-0.0 size=N/A time=00:02:43.20 bitrate=N/A speed=   4x    frame= 4130 fps=100 q=-0.0 size=N/A time=00:02:45.20 bitrate=N/A speed=   4x    frame= 4182 fps=100 q=-0.0 size=N/A time=00:02:47.28 bitrate=N/A speed=   4x    frame= 4233 fps=100 q=-0.0 size=N/A time=00:02:49.32 bitrate=N/A speed=   4x    frame= 4287 fps=100 q=-0.0 size=N/A time=00:02:51.48 bitrate=N/A speed=   4x    frame= 4336 fps=100 q=-0.0 size=N/A time=00:02:53.44 bitrate=N/A speed=   4x    frame= 4389 fps=100 q=-0.0 size=N/A time=00:02:55.56 bitrate=N/A speed=   4x    frame= 4438 fps=100 q=-0.0 size=N/A time=00:02:57.52 bitrate=N/A speed=   4x    frame= 4491 fps=100 q=-0.0 size=N/A time=00:02:59.64 bitrate=N/A speed=   4x    frame= 4542 fps=100 q=-0.0 size=N/A time=00:03:01.68 bitrate=N/A speed=   4x    frame= 4595 fps=100 q=-0.0 size=N/A time=00:03:03.80 bitrate=N/A speed=   4x    frame= 4645 fps=100 q=-0.0 size=N/A time=00:03:05.80 bitrate=N/A speed=   4x    frame= 4700 fps=100 q=-0.0 size=N/A time=00:03:08.00 bitrate=N/A speed=   4x    frame= 4750 fps=100 q=-0.0 size=N/A time=00:03:10.00 bitrate=N/A speed=   4x    frame= 4801 fps=100 q=-0.0 size=N/A time=00:03:12.04 bitrate=N/A speed=   4x    frame= 4853 fps=100 q=-0.0 size=N/A time=00:03:14.12 bitrate=N/A speed=   4x    frame= 4905 fps=100 q=-0.0 size=N/A time=00:03:16.20 bitrate=N/A speed=   4x    frame= 4959 fps=100 q=-0.0 size=N/A time=00:03:18.36 bitrate=N/A speed=   4x    frame= 5009 fps=100 q=-0.0 size=N/A time=00:03:20.36 bitrate=N/A speed=   4x    frame= 5061 fps=100 q=-0.0 size=N/A time=00:03:22.44 bitrate=N/A speed=   4x    frame= 5114 fps=100 q=-0.0 size=N/A time=00:03:24.56 bitrate=N/A speed=   4x    frame= 5166 fps=100 q=-0.0 size=N/A time=00:03:26.64 bitrate=N/A speed=4.01x    frame= 5217 fps=100 q=-0.0 size=N/A time=00:03:28.68 bitrate=N/A speed=4.01x    frame= 5270 fps=100 q=-0.0 size=N/A time=00:03:30.80 bitrate=N/A speed=4.01x    frame= 5320 fps=100 q=-0.0 size=N/A time=00:03:32.80 bitrate=N/A speed=   4x    frame= 5373 fps=100 q=-0.0 size=N/A time=00:03:34.92 bitrate=N/A speed=4.01x    frame= 5424 fps=100 q=-0.0 size=N/A time=00:03:36.96 bitrate=N/A speed=4.01x    frame= 5475 fps=100 q=-0.0 size=N/A time=00:03:39.00 bitrate=N/A speed=   4x    frame= 5524 fps=100 q=-0.0 size=N/A time=00:03:40.96 bitrate=N/A speed=   4x    frame= 5578 fps=100 q=-0.0 size=N/A time=00:03:43.12 bitrate=N/A speed=   4x    frame= 5627 fps=100 q=-0.0 size=N/A time=00:03:45.08 bitrate=N/A speed=   4x    frame= 5678 fps=100 q=-0.0 size=N/A time=00:03:47.12 bitrate=N/A speed=   4x    frame= 5729 fps=100 q=-0.0 size=N/A time=00:03:49.16 bitrate=N/A speed=   4x    frame= 5782 fps=100 q=-0.0 size=N/A time=00:03:51.28 bitrate=N/A speed=   4x    frame= 5833 fps=100 q=-0.0 size=N/A time=00:03:53.32 bitrate=N/A speed=   4x    frame= 5887 fps=100 q=-0.0 size=N/A time=00:03:55.48 bitrate=N/A speed=   4x    frame= 5937 fps=100 q=-0.0 size=N/A time=00:03:57.48 bitrate=N/A speed=   4x    frame= 5990 fps=100 q=-0.0 size=N/A time=00:03:59.60 bitrate=N/A speed=   4x    frame= 6041 fps=100 q=-0.0 size=N/A time=00:04:01.64 bitrate=N/A speed=   4x    frame= 6093 fps=100 q=-0.0 size=N/A time=00:04:03.72 bitrate=N/A speed=   4x    frame= 6145 fps=100 q=-0.0 size=N/A time=00:04:05.80 bitrate=N/A speed=   4x    frame= 6197 fps=100 q=-0.0 size=N/A time=00:04:07.88 bitrate=N/A speed=   4x    frame= 6248 fps=100 q=-0.0 size=N/A time=00:04:09.92 bitrate=N/A speed=   4x    frame= 6301 fps=100 q=-0.0 size=N/A time=00:04:12.04 bitrate=N/A speed=   4x    frame= 6350 fps=100 q=-0.0 size=N/A time=00:04:14.00 bitrate=N/A speed=   4x    frame= 6403 fps=100 q=-0.0 size=N/A time=00:04:16.12 bitrate=N/A speed=   4x    frame= 6451 fps=100 q=-0.0 size=N/A time=00:04:18.04 bitrate=N/A speed=   4x    frame= 6505 fps=100 q=-0.0 size=N/A time=00:04:20.20 bitrate=N/A speed=   4x    frame= 6555 fps=100 q=-0.0 size=N/A time=00:04:22.20 bitrate=N/A speed=   4x    frame= 6607 fps=100 q=-0.0 size=N/A time=00:04:24.28 bitrate=N/A speed=   4x    frame= 6657 fps=100 q=-0.0 size=N/A time=00:04:26.28 bitrate=N/A speed=   4x    frame= 6709 fps=100 q=-0.0 size=N/A time=00:04:28.36 bitrate=N/A speed=   4x    frame= 6761 fps=100 q=-0.0 size=N/A time=00:04:30.44 bitrate=N/A speed=   4x    frame= 6810 fps=100 q=-0.0 size=N/A time=00:04:32.40 bitrate=N/A speed=   4x    frame= 6862 fps=100 q=-0.0 size=N/A time=00:04:34.48 bitrate=N/A speed=   4x    frame= 6914 fps=100 q=-0.0 size=N/A time=00:04:36.56 bitrate=N/A speed=   4x    frame= 6965 fps=100 q=-0.0 size=N/A time=00:04:38.60 bitrate=N/A speed=   4x    frame= 7014 fps=100 q=-0.0 size=N/A time=00:04:40.56 bitrate=N/A speed=   4x    frame= 7068 fps=100 q=-0.0 size=N/A time=00:04:42.72 bitrate=N/A speed=   4x    frame= 7118 fps=100 q=-0.0 size=N/A time=00:04:44.72 bitrate=N/A speed=   4x    frame= 7169 fps=100 q=-0.0 size=N/A time=00:04:46.76 bitrate=N/A speed=   4x    frame= 7218 fps=100 q=-0.0 size=N/A time=00:04:48.72 bitrate=N/A speed=   4x    frame= 7273 fps=100 q=-0.0 size=N/A time=00:04:50.92 bitrate=N/A speed=   4x    frame= 7322 fps=100 q=-0.0 size=N/A time=00:04:52.88 bitrate=N/A speed=   4x    frame= 7376 fps=100 q=-0.0 size=N/A time=00:04:55.04 bitrate=N/A speed=   4x    frame= 7425 fps=100 q=-0.0 size=N/A time=00:04:57.00 bitrate=N/A speed=   4x    frame= 7479 fps=100 q=-0.0 size=N/A time=00:04:59.16 bitrate=N/A speed=   4x    frame= 7530 fps=100 q=-0.0 size=N/A time=00:05:01.20 bitrate=N/A speed=   4x    frame= 7584 fps=100 q=-0.0 size=N/A time=00:05:03.36 bitrate=N/A speed=   4x    frame= 7633 fps=100 q=-0.0 size=N/A time=00:05:05.32 bitrate=N/A speed=   4x    frame= 7687 fps=100 q=-0.0 size=N/A time=00:05:07.48 bitrate=N/A speed=   4x    frame= 7737 fps=100 q=-0.0 size=N/A time=00:05:09.48 bitrate=N/A speed=   4x    frame= 7790 fps=100 q=-0.0 size=N/A time=00:05:11.60 bitrate=N/A speed=   4x    frame= 7838 fps=100 q=-0.0 size=N/A time=00:05:13.52 bitrate=N/A speed=   4x    frame= 7892 fps=100 q=-0.0 size=N/A time=00:05:15.68 bitrate=N/A speed=   4x    frame= 7941 fps=100 q=-0.0 size=N/A time=00:05:17.64 bitrate=N/A speed=   4x    frame= 7993 fps=100 q=-0.0 size=N/A time=00:05:19.72 bitrate=N/A speed=   4x    frame= 8046 fps=100 q=-0.0 size=N/A time=00:05:21.84 bitrate=N/A speed=   4x    frame= 8098 fps=100 q=-0.0 size=N/A time=00:05:23.92 bitrate=N/A speed=   4x    frame= 8145 fps=100 q=-0.0 size=N/A time=00:05:25.80 bitrate=N/A speed=   4x    frame= 8198 fps=100 q=-0.0 size=N/A time=00:05:27.92 bitrate=N/A speed=   4x    frame= 8249 fps=100 q=-0.0 size=N/A time=00:05:29.96 bitrate=N/A speed=   4x    frame= 8300 fps=100 q=-0.0 size=N/A time=00:05:32.00 bitrate=N/A speed=   4x    frame= 8352 fps=100 q=-0.0 size=N/A time=00:05:34.08 bitrate=N/A speed=   4x    frame= 8401 fps=100 q=-0.0 size=N/A time=00:05:36.04 bitrate=N/A speed=   4x    frame= 8453 fps=100 q=-0.0 size=N/A time=00:05:38.12 bitrate=N/A speed=   4x    frame= 8504 fps=100 q=-0.0 size=N/A time=00:05:40.16 bitrate=N/A speed=   4x    frame= 8555 fps=100 q=-0.0 size=N/A time=00:05:42.20 bitrate=N/A speed=   4x    frame= 8608 fps=100 q=-0.0 size=N/A time=00:05:44.32 bitrate=N/A speed=   4x    frame= 8660 fps=100 q=-0.0 size=N/A time=00:05:46.40 bitrate=N/A speed=   4x    frame= 8711 fps=100 q=-0.0 size=N/A time=00:05:48.44 bitrate=N/A speed=   4x    frame= 8764 fps=100 q=-0.0 size=N/A time=00:05:50.56 bitrate=N/A speed=   4x    frame= 8814 fps=100 q=-0.0 size=N/A time=00:05:52.56 bitrate=N/A speed=   4x    frame= 8866 fps=100 q=-0.0 size=N/A time=00:05:54.64 bitrate=N/A speed=   4x    frame= 8915 fps=100 q=-0.0 size=N/A time=00:05:56.60 bitrate=N/A speed=   4x    frame= 8967 fps=100 q=-0.0 size=N/A time=00:05:58.68 bitrate=N/A speed=   4x    frame= 9018 fps=100 q=-0.0 size=N/A time=00:06:00.72 bitrate=N/A speed=   4x    frame= 9071 fps=100 q=-0.0 size=N/A time=00:06:02.84 bitrate=N/A speed=   4x    frame= 9120 fps=100 q=-0.0 size=N/A time=00:06:04.80 bitrate=N/A speed=   4x    frame= 9173 fps=100 q=-0.0 size=N/A time=00:06:06.92 bitrate=N/A speed=   4x    frame= 9223 fps=100 q=-0.0 size=N/A time=00:06:08.92 bitrate=N/A speed=   4x    frame= 9276 fps=100 q=-0.0 size=N/A time=00:06:11.04 bitrate=N/A speed=   4x    frame= 9324 fps=100 q=-0.0 size=N/A time=00:06:12.96 bitrate=N/A speed=3.99x    frame= 9377 fps=100 q=-0.0 size=N/A time=00:06:15.08 bitrate=N/A speed=   4x    frame= 9428 fps=100 q=-0.0 size=N/A time=00:06:17.12 bitrate=N/A speed=   4x    frame= 9480 fps=100 q=-0.0 size=N/A time=00:06:19.20 bitrate=N/A speed=   4x    frame= 9529 fps=100 q=-0.0 size=N/A time=00:06:21.16 bitrate=N/A speed=3.99x    frame= 9582 fps=100 q=-0.0 size=N/A time=00:06:23.28 bitrate=N/A speed=   4x    frame= 9632 fps=100 q=-0.0 size=N/A time=00:06:25.28 bitrate=N/A speed=3.99x    frame= 9682 fps=100 q=-0.0 size=N/A time=00:06:27.28 bitrate=N/A speed=3.99x    frame= 9733 fps=100 q=-0.0 size=N/A time=00:06:29.32 bitrate=N/A speed=3.99x    frame= 9783 fps=100 q=-0.0 size=N/A time=00:06:31.32 bitrate=N/A speed=3.99x    frame= 9831 fps=100 q=-0.0 size=N/A time=00:06:33.24 bitrate=N/A speed=3.99x    frame= 9882 fps=100 q=-0.0 size=N/A time=00:06:35.28 bitrate=N/A speed=3.99x    frame= 9932 fps=100 q=-0.0 size=N/A time=00:06:37.28 bitrate=N/A speed=3.99x    frame= 9984 fps=100 q=-0.0 size=N/A time=00:06:39.36 bitrate=N/A speed=3.99x    frame=10035 fps=100 q=-0.0 size=N/A time=00:06:41.40 bitrate=N/A speed=3.99x    frame=10085 fps=100 q=-0.0 size=N/A time=00:06:43.40 bitrate=N/A speed=3.99x    frame=10138 fps=100 q=-0.0 size=N/A time=00:06:45.52 bitrate=N/A speed=3.99x    frame=10187 fps=100 q=-0.0 size=N/A time=00:06:47.48 bitrate=N/A speed=3.99x    frame=10240 fps=100 q=-0.0 size=N/A time=00:06:49.60 bitrate=N/A speed=3.99x    frame=10291 fps=100 q=-0.0 size=N/A time=00:06:51.64 bitrate=N/A speed=3.99x    frame=10341 fps=100 q=-0.0 size=N/A time=00:06:53.64 bitrate=N/A speed=3.99x    frame=10393 fps=100 q=-0.0 size=N/A time=00:06:55.72 bitrate=N/A speed=3.99x    frame=10445 fps=100 q=-0.0 size=N/A time=00:06:57.80 bitrate=N/A speed=3.99x    frame=10496 fps=100 q=-0.0 size=N/A time=00:06:59.84 bitrate=N/A speed=3.99x    frame=10550 fps=100 q=-0.0 size=N/A time=00:07:02.00 bitrate=N/A speed=3.99x    frame=10602 fps=100 q=-0.0 size=N/A time=00:07:04.08 bitrate=N/A speed=3.99x    frame=10654 fps=100 q=-0.0 size=N/A time=00:07:06.16 bitrate=N/A speed=3.99x    frame=10704 fps=100 q=-0.0 size=N/A time=00:07:08.16 bitrate=N/A speed=3.99x    frame=10758 fps=100 q=-0.0 size=N/A time=00:07:10.32 bitrate=N/A speed=3.99x    frame=10807 fps=100 q=-0.0 size=N/A time=00:07:12.28 bitrate=N/A speed=3.99x    frame=10861 fps=100 q=-0.0 size=N/A time=00:07:14.44 bitrate=N/A speed=3.99x    frame=10910 fps=100 q=-0.0 size=N/A time=00:07:16.40 bitrate=N/A speed=3.99x    frame=10964 fps=100 q=-0.0 size=N/A time=00:07:18.56 bitrate=N/A speed=3.99x    frame=11015 fps=100 q=-0.0 size=N/A time=00:07:20.60 bitrate=N/A speed=3.99x    frame=11067 fps=100 q=-0.0 size=N/A time=00:07:22.68 bitrate=N/A speed=3.99x    frame=11117 fps=100 q=-0.0 size=N/A time=00:07:24.68 bitrate=N/A speed=3.99x    frame=11170 fps=100 q=-0.0 size=N/A time=00:07:26.80 bitrate=N/A speed=3.99x    frame=11220 fps=100 q=-0.0 size=N/A time=00:07:28.80 bitrate=N/A speed=3.99x    frame=11273 fps=100 q=-0.0 size=N/A time=00:07:30.92 bitrate=N/A speed=3.99x    frame=11324 fps=100 q=-0.0 size=N/A time=00:07:32.96 bitrate=N/A speed=3.99x    frame=11376 fps=100 q=-0.0 size=N/A time=00:07:35.04 bitrate=N/A speed=3.99x    frame=11428 fps=100 q=-0.0 size=N/A time=00:07:37.12 bitrate=N/A speed=3.99x    frame=11480 fps=100 q=-0.0 size=N/A time=00:07:39.20 bitrate=N/A speed=3.99x    frame=11530 fps=100 q=-0.0 size=N/A time=00:07:41.20 bitrate=N/A speed=3.99x    frame=11582 fps=100 q=-0.0 size=N/A time=00:07:43.28 bitrate=N/A speed=3.99x    frame=11634 fps=100 q=-0.0 size=N/A time=00:07:45.36 bitrate=N/A speed=3.99x    frame=11685 fps=100 q=-0.0 size=N/A time=00:07:47.40 bitrate=N/A speed=3.99x    frame=11738 fps=100 q=-0.0 size=N/A time=00:07:49.52 bitrate=N/A speed=3.99x    frame=11788 fps=100 q=-0.0 size=N/A time=00:07:51.52 bitrate=N/A speed=3.99x    frame=11842 fps=100 q=-0.0 size=N/A time=00:07:53.68 bitrate=N/A speed=3.99x    frame=11891 fps=100 q=-0.0 size=N/A time=00:07:55.64 bitrate=N/A speed=3.99x    frame=11945 fps=100 q=-0.0 size=N/A time=00:07:57.80 bitrate=N/A speed=3.99x    frame=11996 fps=100 q=-0.0 size=N/A time=00:07:59.84 bitrate=N/A speed=3.99x    frame=12048 fps=100 q=-0.0 size=N/A time=00:08:01.92 bitrate=N/A speed=3.99x    frame=12098 fps=100 q=-0.0 size=N/A time=00:08:03.92 bitrate=N/A speed=3.99x    frame=12151 fps=100 q=-0.0 size=N/A time=00:08:06.04 bitrate=N/A speed=3.99x    frame=12201 fps=100 q=-0.0 size=N/A time=00:08:08.04 bitrate=N/A speed=3.99x    frame=12255 fps=100 q=-0.0 size=N/A time=00:08:10.20 bitrate=N/A speed=3.99x    frame=12304 fps=100 q=-0.0 size=N/A time=00:08:12.16 bitrate=N/A speed=3.99x    frame=12359 fps=100 q=-0.0 size=N/A time=00:08:14.36 bitrate=N/A speed=3.99x    frame=12409 fps=100 q=-0.0 size=N/A time=00:08:16.36 bitrate=N/A speed=3.99x    frame=12461 fps=100 q=-0.0 size=N/A time=00:08:18.44 bitrate=N/A speed=3.99x    frame=12512 fps=100 q=-0.0 size=N/A time=00:08:20.48 bitrate=N/A speed=3.99x    frame=12564 fps=100 q=-0.0 size=N/A time=00:08:22.56 bitrate=N/A speed=3.99x    frame=12615 fps=100 q=-0.0 size=N/A time=00:08:24.60 bitrate=N/A speed=3.99x    frame=12666 fps=100 q=-0.0 size=N/A time=00:08:26.64 bitrate=N/A speed=3.99x    frame=12715 fps=100 q=-0.0 size=N/A time=00:08:28.60 bitrate=N/A speed=3.99x    frame=12768 fps=100 q=-0.0 size=N/A time=00:08:30.72 bitrate=N/A speed=3.99x    frame=12817 fps=100 q=-0.0 size=N/A time=00:08:32.68 bitrate=N/A speed=3.99x    frame=12871 fps=100 q=-0.0 size=N/A time=00:08:34.84 bitrate=N/A speed=3.99x    frame=12922 fps=100 q=-0.0 size=N/A time=00:08:36.88 bitrate=N/A speed=3.99x    frame=12974 fps=100 q=-0.0 size=N/A time=00:08:38.96 bitrate=N/A speed=3.99x    frame=13025 fps=100 q=-0.0 size=N/A time=00:08:41.00 bitrate=N/A speed=3.99x    frame=13077 fps=100 q=-0.0 size=N/A time=00:08:43.08 bitrate=N/A speed=3.99x    frame=13129 fps=100 q=-0.0 size=N/A time=00:08:45.16 bitrate=N/A speed=3.99x    frame=13180 fps=100 q=-0.0 size=N/A time=00:08:47.20 bitrate=N/A speed=3.99x    frame=13230 fps=100 q=-0.0 size=N/A time=00:08:49.20 bitrate=N/A speed=3.99x    frame=13282 fps=100 q=-0.0 size=N/A time=00:08:51.28 bitrate=N/A speed=3.99x    frame=13335 fps=100 q=-0.0 size=N/A time=00:08:53.40 bitrate=N/A speed=3.99x    frame=13385 fps=100 q=-0.0 size=N/A time=00:08:55.40 bitrate=N/A speed=3.99x    frame=13437 fps=100 q=-0.0 size=N/A time=00:08:57.48 bitrate=N/A speed=3.99x    frame=13488 fps=100 q=-0.0 size=N/A time=00:08:59.52 bitrate=N/A speed=3.99x    frame=13541 fps=100 q=-0.0 size=N/A time=00:09:01.64 bitrate=N/A speed=3.99x    frame=13592 fps=100 q=-0.0 size=N/A time=00:09:03.68 bitrate=N/A speed=3.99x    frame=13645 fps=100 q=-0.0 size=N/A time=00:09:05.80 bitrate=N/A speed=3.99x    frame=13695 fps=100 q=-0.0 size=N/A time=00:09:07.80 bitrate=N/A speed=3.99x    frame=13749 fps=100 q=-0.0 size=N/A time=00:09:09.96 bitrate=N/A speed=3.99x    frame=13797 fps=100 q=-0.0 size=N/A time=00:09:11.88 bitrate=N/A speed=3.99x    frame=13851 fps=100 q=-0.0 size=N/A time=00:09:14.04 bitrate=N/A speed=3.99x    frame=13901 fps=100 q=-0.0 size=N/A time=00:09:16.04 bitrate=N/A speed=3.99x    frame=13955 fps=100 q=-0.0 size=N/A time=00:09:18.20 bitrate=N/A speed=3.99x    frame=14004 fps=100 q=-0.0 size=N/A time=00:09:20.16 bitrate=N/A speed=3.99x    frame=14057 fps=100 q=-0.0 size=N/A time=00:09:22.28 bitrate=N/A speed=3.99x    frame=14109 fps=100 q=-0.0 size=N/A time=00:09:24.36 bitrate=N/A speed=3.99x    frame=14163 fps=100 q=-0.0 size=N/A time=00:09:26.52 bitrate=N/A speed=3.99x    frame=14213 fps=100 q=-0.0 size=N/A time=00:09:28.52 bitrate=N/A speed=3.99x    frame=14267 fps=100 q=-0.0 size=N/A time=00:09:30.68 bitrate=N/A speed=3.99x    frame=14318 fps=100 q=-0.0 size=N/A time=00:09:32.72 bitrate=N/A speed=3.99x    frame=14374 fps=100 q=-0.0 size=N/A time=00:09:34.96 bitrate=N/A speed=3.99x    frame=14423 fps=100 q=-0.0 size=N/A time=00:09:36.92 bitrate=N/A speed=3.99x    frame=14477 fps=100 q=-0.0 size=N/A time=00:09:39.08 bitrate=N/A speed=3.99x    frame=14528 fps=100 q=-0.0 size=N/A time=00:09:41.12 bitrate=N/A speed=3.99x    frame=14579 fps=100 q=-0.0 size=N/A time=00:09:43.16 bitrate=N/A speed=3.99x    frame=14631 fps=100 q=-0.0 size=N/A time=00:09:45.24 bitrate=N/A speed=3.99x    frame=14682 fps=100 q=-0.0 size=N/A time=00:09:47.28 bitrate=N/A speed=3.99x    frame=14731 fps=100 q=-0.0 size=N/A time=00:09:49.24 bitrate=N/A speed=3.99x    frame=14783 fps=100 q=-0.0 size=N/A time=00:09:51.32 bitrate=N/A speed=3.99x    frame=14835 fps=100 q=-0.0 size=N/A time=00:09:53.40 bitrate=N/A speed=3.99x    frame=14885 fps=100 q=-0.0 size=N/A time=00:09:55.40 bitrate=N/A speed=3.99x    frame=14938 fps=100 q=-0.0 size=N/A time=00:09:57.52 bitrate=N/A speed=3.99x    frame=14988 fps=100 q=-0.0 size=N/A time=00:09:59.52 bitrate=N/A speed=3.99x    frame=15040 fps=100 q=-0.0 size=N/A time=00:10:01.60 bitrate=N/A speed=3.99x    frame=15091 fps=100 q=-0.0 size=N/A time=00:10:03.64 bitrate=N/A speed=3.99x    frame=15144 fps=100 q=-0.0 size=N/A time=00:10:05.76 bitrate=N/A speed=3.99x    frame=15194 fps=100 q=-0.0 size=N/A time=00:10:07.76 bitrate=N/A speed=3.99x    frame=15247 fps=100 q=-0.0 size=N/A time=00:10:09.88 bitrate=N/A speed=3.99x    frame=15296 fps=100 q=-0.0 size=N/A time=00:10:11.84 bitrate=N/A speed=3.99x    frame=15351 fps=100 q=-0.0 size=N/A time=00:10:14.04 bitrate=N/A speed=3.99x    frame=15401 fps=100 q=-0.0 size=N/A time=00:10:16.04 bitrate=N/A speed=3.99x    frame=15453 fps=100 q=-0.0 size=N/A time=00:10:18.12 bitrate=N/A speed=3.99x    frame=15504 fps=100 q=-0.0 size=N/A time=00:10:20.16 bitrate=N/A speed=3.99x    frame=15556 fps=100 q=-0.0 size=N/A time=00:10:22.24 bitrate=N/A speed=3.99x    frame=15604 fps=100 q=-0.0 size=N/A time=00:10:24.16 bitrate=N/A speed=3.99x    frame=15656 fps=100 q=-0.0 size=N/A time=00:10:26.24 bitrate=N/A speed=3.99x    frame=15707 fps=100 q=-0.0 size=N/A time=00:10:28.28 bitrate=N/A speed=3.99x    frame=15760 fps=100 q=-0.0 size=N/A time=00:10:30.40 bitrate=N/A speed=3.99x    frame=15810 fps=100 q=-0.0 size=N/A time=00:10:32.40 bitrate=N/A speed=3.99x    frame=15863 fps=100 q=-0.0 size=N/A time=00:10:34.52 bitrate=N/A speed=3.99x    frame=15912 fps=100 q=-0.0 size=N/A time=00:10:36.48 bitrate=N/A speed=3.99x    frame=15966 fps=100 q=-0.0 size=N/A time=00:10:38.64 bitrate=N/A speed=3.99x    frame=16016 fps=100 q=-0.0 size=N/A time=00:10:40.64 bitrate=N/A speed=3.99x    frame=16069 fps=100 q=-0.0 size=N/A time=00:10:42.76 bitrate=N/A speed=3.99x    frame=16120 fps=100 q=-0.0 size=N/A time=00:10:44.80 bitrate=N/A speed=3.99x    frame=16173 fps=100 q=-0.0 size=N/A time=00:10:46.92 bitrate=N/A speed=3.99x    frame=16223 fps=100 q=-0.0 size=N/A time=00:10:48.92 bitrate=N/A speed=3.99x    frame=16278 fps=100 q=-0.0 size=N/A time=00:10:51.12 bitrate=N/A speed=3.99x    frame=16328 fps=100 q=-0.0 size=N/A time=00:10:53.12 bitrate=N/A speed=3.99x    frame=16380 fps=100 q=-0.0 size=N/A time=00:10:55.20 bitrate=N/A speed=3.99x    frame=16432 fps=100 q=-0.0 size=N/A time=00:10:57.28 bitrate=N/A speed=3.99x    frame=16483 fps=100 q=-0.0 size=N/A time=00:10:59.32 bitrate=N/A speed=3.99x    frame=16534 fps=100 q=-0.0 size=N/A time=00:11:01.36 bitrate=N/A speed=3.99x    frame=16585 fps=100 q=-0.0 size=N/A time=00:11:03.40 bitrate=N/A speed=3.99x    frame=16636 fps=100 q=-0.0 size=N/A time=00:11:05.44 bitrate=N/A speed=3.99x    frame=16688 fps=100 q=-0.0 size=N/A time=00:11:07.52 bitrate=N/A speed=3.99x    frame=16740 fps=100 q=-0.0 size=N/A time=00:11:09.60 bitrate=N/A speed=3.99x    frame=16790 fps=100 q=-0.0 size=N/A time=00:11:11.60 bitrate=N/A speed=3.99x    frame=16843 fps=100 q=-0.0 size=N/A time=00:11:13.72 bitrate=N/A speed=3.99x    frame=16893 fps=100 q=-0.0 size=N/A time=00:11:15.72 bitrate=N/A speed=3.99x    frame=16945 fps=100 q=-0.0 size=N/A time=00:11:17.80 bitrate=N/A speed=3.99x    frame=16995 fps=100 q=-0.0 size=N/A time=00:11:19.80 bitrate=N/A speed=3.99x    frame=17047 fps=100 q=-0.0 size=N/A time=00:11:21.88 bitrate=N/A speed=3.99x    frame=17097 fps=100 q=-0.0 size=N/A time=00:11:23.88 bitrate=N/A speed=3.99x    frame=17151 fps=100 q=-0.0 size=N/A time=00:11:26.04 bitrate=N/A speed=3.99x    frame=17202 fps=100 q=-0.0 size=N/A time=00:11:28.08 bitrate=N/A speed=3.99x    frame=17256 fps=100 q=-0.0 size=N/A time=00:11:30.24 bitrate=N/A speed=3.99x    frame=17307 fps=100 q=-0.0 size=N/A time=00:11:32.28 bitrate=N/A speed=3.99x    frame=17359 fps=100 q=-0.0 size=N/A time=00:11:34.36 bitrate=N/A speed=3.99x    frame=17408 fps=100 q=-0.0 size=N/A time=00:11:36.32 bitrate=N/A speed=3.99x    frame=17462 fps=100 q=-0.0 size=N/A time=00:11:38.48 bitrate=N/A speed=3.99x    frame=17512 fps=100 q=-0.0 size=N/A time=00:11:40.48 bitrate=N/A speed=3.99x    frame=17565 fps=100 q=-0.0 size=N/A time=00:11:42.60 bitrate=N/A speed=3.99x    frame=17618 fps=100 q=-0.0 size=N/A time=00:11:44.72 bitrate=N/A speed=3.99x    frame=17670 fps=100 q=-0.0 size=N/A time=00:11:46.80 bitrate=N/A speed=3.99x    frame=17721 fps=100 q=-0.0 size=N/A time=00:11:48.84 bitrate=N/A speed=3.99x    frame=17773 fps=100 q=-0.0 size=N/A time=00:11:50.92 bitrate=N/A speed=3.99x    frame=17823 fps=100 q=-0.0 size=N/A time=00:11:52.92 bitrate=N/A speed=3.99x    frame=17877 fps=100 q=-0.0 size=N/A time=00:11:55.08 bitrate=N/A speed=3.99x    frame=17929 fps=100 q=-0.0 size=N/A time=00:11:57.16 bitrate=N/A speed=3.99x    frame=17981 fps=100 q=-0.0 size=N/A time=00:11:59.24 bitrate=N/A speed=3.99x    frame=18032 fps=100 q=-0.0 size=N/A time=00:12:01.28 bitrate=N/A speed=3.99x    frame=18083 fps=100 q=-0.0 size=N/A time=00:12:03.32 bitrate=N/A speed=3.99x    frame=18136 fps=100 q=-0.0 size=N/A time=00:12:05.44 bitrate=N/A speed=3.99x    frame=18185 fps=100 q=-0.0 size=N/A time=00:12:07.40 bitrate=N/A speed=3.99x    frame=18237 fps=100 q=-0.0 size=N/A time=00:12:09.48 bitrate=N/A speed=3.99x    frame=18287 fps=100 q=-0.0 size=N/A time=00:12:11.48 bitrate=N/A speed=3.99x    frame=18338 fps=100 q=-0.0 size=N/A time=00:12:13.52 bitrate=N/A speed=3.99x    frame=18388 fps=100 q=-0.0 size=N/A time=00:12:15.52 bitrate=N/A speed=3.99x    frame=18443 fps=100 q=-0.0 size=N/A time=00:12:17.72 bitrate=N/A speed=3.99x    frame=18493 fps=100 q=-0.0 size=N/A time=00:12:19.72 bitrate=N/A speed=3.99x    frame=18548 fps=100 q=-0.0 size=N/A time=00:12:21.92 bitrate=N/A speed=3.99x    frame=18598 fps=100 q=-0.0 size=N/A time=00:12:23.92 bitrate=N/A speed=3.99x    frame=18654 fps=100 q=-0.0 size=N/A time=00:12:26.16 bitrate=N/A speed=   4x    frame=18705 fps=100 q=-0.0 size=N/A time=00:12:28.20 bitrate=N/A speed=   4x    frame=18758 fps=100 q=-0.0 size=N/A time=00:12:30.32 bitrate=N/A speed=   4x    frame=18809 fps=100 q=-0.0 size=N/A time=00:12:32.36 bitrate=N/A speed=   4x    frame=18861 fps=100 q=-0.0 size=N/A time=00:12:34.44 bitrate=N/A speed=   4x    frame=18911 fps=100 q=-0.0 size=N/A time=00:12:36.44 bitrate=N/A speed=   4x    frame=18964 fps=100 q=-0.0 size=N/A time=00:12:38.56 bitrate=N/A speed=   4x    frame=19013 fps=100 q=-0.0 size=N/A time=00:12:40.52 bitrate=N/A speed=   4x    frame=19066 fps=100 q=-0.0 size=N/A time=00:12:42.64 bitrate=N/A speed=   4x    frame=19118 fps=100 q=-0.0 size=N/A time=00:12:44.72 bitrate=N/A speed=   4x    frame=19169 fps=100 q=-0.0 size=N/A time=00:12:46.76 bitrate=N/A speed=   4x    frame=19220 fps=100 q=-0.0 size=N/A time=00:12:48.80 bitrate=N/A speed=   4x    frame=19271 fps=100 q=-0.0 size=N/A time=00:12:50.84 bitrate=N/A speed=   4x    frame=19323 fps=100 q=-0.0 size=N/A time=00:12:52.92 bitrate=N/A speed=   4x    frame=19375 fps=100 q=-0.0 size=N/A time=00:12:55.00 bitrate=N/A speed=   4x    frame=19426 fps=100 q=-0.0 size=N/A time=00:12:57.04 bitrate=N/A speed=   4x    frame=19477 fps=100 q=-0.0 size=N/A time=00:12:59.08 bitrate=N/A speed=   4x    frame=19527 fps=100 q=-0.0 size=N/A time=00:13:01.08 bitrate=N/A speed=   4x    frame=19580 fps=100 q=-0.0 size=N/A time=00:13:03.20 bitrate=N/A speed=   4x    frame=19631 fps=100 q=-0.0 size=N/A time=00:13:05.24 bitrate=N/A speed=3.99x    frame=19683 fps=100 q=-0.0 size=N/A time=00:13:07.32 bitrate=N/A speed=   4x    frame=19737 fps=100 q=-0.0 size=N/A time=00:13:09.48 bitrate=N/A speed=   4x    frame=19787 fps=100 q=-0.0 size=N/A time=00:13:11.48 bitrate=N/A speed=   4x    frame=19839 fps=100 q=-0.0 size=N/A time=00:13:13.56 bitrate=N/A speed=   4x    frame=19889 fps=100 q=-0.0 size=N/A time=00:13:15.56 bitrate=N/A speed=3.99x    frame=19942 fps=100 q=-0.0 size=N/A time=00:13:17.68 bitrate=N/A speed=   4x    frame=19991 fps=100 q=-0.0 size=N/A time=00:13:19.64 bitrate=N/A speed=3.99x    frame=20045 fps=100 q=-0.0 size=N/A time=00:13:21.80 bitrate=N/A speed=   4x    frame=20094 fps=100 q=-0.0 size=N/A time=00:13:23.76 bitrate=N/A speed=3.99x    frame=20147 fps=100 q=-0.0 size=N/A time=00:13:25.88 bitrate=N/A speed=   4x    frame=20196 fps=100 q=-0.0 size=N/A time=00:13:27.84 bitrate=N/A speed=3.99x    frame=20249 fps=100 q=-0.0 size=N/A time=00:13:29.96 bitrate=N/A speed=   4x    frame=20299 fps=100 q=-0.0 size=N/A time=00:13:31.96 bitrate=N/A speed=3.99x    frame=20351 fps=100 q=-0.0 size=N/A time=00:13:34.04 bitrate=N/A speed=3.99x    frame=20400 fps=100 q=-0.0 size=N/A time=00:13:36.00 bitrate=N/A speed=3.99x    frame=20455 fps=100 q=-0.0 size=N/A time=00:13:38.20 bitrate=N/A speed=3.99x    frame=20505 fps=100 q=-0.0 size=N/A time=00:13:40.20 bitrate=N/A speed=3.99x    frame=20557 fps=100 q=-0.0 size=N/A time=00:13:42.28 bitrate=N/A speed=3.99x    frame=20608 fps=100 q=-0.0 size=N/A time=00:13:44.32 bitrate=N/A speed=3.99x    frame=20659 fps=100 q=-0.0 size=N/A time=00:13:46.36 bitrate=N/A speed=3.99x    frame=20709 fps=100 q=-0.0 size=N/A time=00:13:48.36 bitrate=N/A speed=3.99x    frame=20760 fps=100 q=-0.0 size=N/A time=00:13:50.40 bitrate=N/A speed=3.99x    frame=20810 fps=100 q=-0.0 size=N/A time=00:13:52.40 bitrate=N/A speed=3.99x    frame=20863 fps=100 q=-0.0 size=N/A time=00:13:54.52 bitrate=N/A speed=3.99x    frame=20913 fps=100 q=-0.0 size=N/A time=00:13:56.52 bitrate=N/A speed=3.99x    frame=20964 fps=100 q=-0.0 size=N/A time=00:13:58.56 bitrate=N/A speed=3.99x    frame=21015 fps=100 q=-0.0 size=N/A time=00:14:00.60 bitrate=N/A speed=3.99x    frame=21067 fps=100 q=-0.0 size=N/A time=00:14:02.68 bitrate=N/A speed=3.99x    frame=21117 fps=100 q=-0.0 size=N/A time=00:14:04.68 bitrate=N/A speed=3.99x    frame=21170 fps=100 q=-0.0 size=N/A time=00:14:06.80 bitrate=N/A speed=3.99x    frame=21221 fps=100 q=-0.0 size=N/A time=00:14:08.84 bitrate=N/A speed=3.99x    frame=21272 fps=100 q=-0.0 size=N/A time=00:14:10.88 bitrate=N/A speed=3.99x    frame=21324 fps=100 q=-0.0 size=N/A time=00:14:12.96 bitrate=N/A speed=3.99x    frame=21376 fps=100 q=-0.0 size=N/A time=00:14:15.04 bitrate=N/A speed=3.99x    frame=21428 fps=100 q=-0.0 size=N/A time=00:14:17.12 bitrate=N/A speed=3.99x    frame=21481 fps=100 q=-0.0 size=N/A time=00:14:19.24 bitrate=N/A speed=3.99x    frame=21533 fps=100 q=-0.0 size=N/A time=00:14:21.32 bitrate=N/A speed=3.99x    frame=21582 fps=100 q=-0.0 size=N/A time=00:14:23.28 bitrate=N/A speed=3.99x    frame=21636 fps=100 q=-0.0 size=N/A time=00:14:25.44 bitrate=N/A speed=3.99x    frame=21683 fps=100 q=-0.0 size=N/A time=00:14:27.32 bitrate=N/A speed=3.99x    frame=21737 fps=100 q=-0.0 size=N/A time=00:14:29.48 bitrate=N/A speed=3.99x    frame=21785 fps=100 q=-0.0 size=N/A time=00:14:31.40 bitrate=N/A speed=3.99x    frame=21840 fps=100 q=-0.0 size=N/A time=00:14:33.60 bitrate=N/A speed=3.99x    frame=21890 fps=100 q=-0.0 size=N/A time=00:14:35.60 bitrate=N/A speed=3.99x    frame=21943 fps=100 q=-0.0 size=N/A time=00:14:37.72 bitrate=N/A speed=3.99x    frame=21992 fps=100 q=-0.0 size=N/A time=00:14:39.68 bitrate=N/A speed=3.99x    frame=22046 fps=100 q=-0.0 size=N/A time=00:14:41.84 bitrate=N/A speed=3.99x    frame=22095 fps=100 q=-0.0 size=N/A time=00:14:43.80 bitrate=N/A speed=3.99x    frame=22150 fps=100 q=-0.0 size=N/A time=00:14:46.00 bitrate=N/A speed=3.99x    frame=22199 fps=100 q=-0.0 size=N/A time=00:14:47.96 bitrate=N/A speed=3.99x    frame=22252 fps=100 q=-0.0 size=N/A time=00:14:50.08 bitrate=N/A speed=3.99x    frame=22304 fps=100 q=-0.0 size=N/A time=00:14:52.16 bitrate=N/A speed=3.99x    frame=22356 fps=100 q=-0.0 size=N/A time=00:14:54.24 bitrate=N/A speed=3.99x    frame=22406 fps=100 q=-0.0 size=N/A time=00:14:56.24 bitrate=N/A speed=3.99x    frame=22460 fps=100 q=-0.0 size=N/A time=00:14:58.40 bitrate=N/A speed=3.99x    frame=22510 fps=100 q=-0.0 size=N/A time=00:15:00.40 bitrate=N/A speed=3.99x    frame=22563 fps=100 q=-0.0 size=N/A time=00:15:02.52 bitrate=N/A speed=3.99x    frame=22613 fps=100 q=-0.0 size=N/A time=00:15:04.52 bitrate=N/A speed=3.99x    frame=22666 fps=100 q=-0.0 size=N/A time=00:15:06.64 bitrate=N/A speed=3.99x    frame=22717 fps=100 q=-0.0 size=N/A time=00:15:08.68 bitrate=N/A speed=3.99x    frame=22770 fps=100 q=-0.0 size=N/A time=00:15:10.80 bitrate=N/A speed=3.99x    frame=22820 fps=100 q=-0.0 size=N/A time=00:15:12.80 bitrate=N/A speed=3.99x    frame=22873 fps=100 q=-0.0 size=N/A time=00:15:14.92 bitrate=N/A speed=3.99x    frame=22925 fps=100 q=-0.0 size=N/A time=00:15:17.00 bitrate=N/A speed=3.99x    frame=22976 fps=100 q=-0.0 size=N/A time=00:15:19.04 bitrate=N/A speed=3.99x    frame=23028 fps=100 q=-0.0 size=N/A time=00:15:21.12 bitrate=N/A speed=3.99x    frame=23078 fps=100 q=-0.0 size=N/A time=00:15:23.12 bitrate=N/A speed=3.99x    frame=23130 fps=100 q=-0.0 size=N/A time=00:15:25.20 bitrate=N/A speed=3.99x    frame=23182 fps=100 q=-0.0 size=N/A time=00:15:27.28 bitrate=N/A speed=3.99x    frame=23233 fps=100 q=-0.0 size=N/A time=00:15:29.32 bitrate=N/A speed=3.99x    frame=23285 fps=100 q=-0.0 size=N/A time=00:15:31.40 bitrate=N/A speed=3.99x    frame=23339 fps=100 q=-0.0 size=N/A time=00:15:33.56 bitrate=N/A speed=   4x    frame=23389 fps=100 q=-0.0 size=N/A time=00:15:35.56 bitrate=N/A speed=3.99x    frame=23442 fps=100 q=-0.0 size=N/A time=00:15:37.68 bitrate=N/A speed=3.99x    frame=23493 fps=100 q=-0.0 size=N/A time=00:15:39.72 bitrate=N/A speed=3.99x    frame=23547 fps=100 q=-0.0 size=N/A time=00:15:41.88 bitrate=N/A speed=   4x    frame=23599 fps=100 q=-0.0 size=N/A time=00:15:43.96 bitrate=N/A speed=   4x    frame=23652 fps=100 q=-0.0 size=N/A time=00:15:46.08 bitrate=N/A speed=   4x    frame=23703 fps=100 q=-0.0 size=N/A time=00:15:48.12 bitrate=N/A speed=   4x    frame=23757 fps=100 q=-0.0 size=N/A time=00:15:50.28 bitrate=N/A speed=   4x    frame=23806 fps=100 q=-0.0 size=N/A time=00:15:52.24 bitrate=N/A speed=   4x    frame=23858 fps=100 q=-0.0 size=N/A time=00:15:54.32 bitrate=N/A speed=   4x    frame=23911 fps=100 q=-0.0 size=N/A time=00:15:56.44 bitrate=N/A speed=   4x    frame=23962 fps=100 q=-0.0 size=N/A time=00:15:58.48 bitrate=N/A speed=   4x    frame=24010 fps=100 q=-0.0 size=N/A time=00:16:00.40 bitrate=N/A speed=   4x    frame=24065 fps=100 q=-0.0 size=N/A time=00:16:02.60 bitrate=N/A speed=   4x    frame=24116 fps=100 q=-0.0 size=N/A time=00:16:04.64 bitrate=N/A speed=   4x    frame=24168 fps=100 q=-0.0 size=N/A time=00:16:06.72 bitrate=N/A speed=   4x    frame=24220 fps=100 q=-0.0 size=N/A time=00:16:08.80 bitrate=N/A speed=   4x    frame=24273 fps=100 q=-0.0 size=N/A time=00:16:10.92 bitrate=N/A speed=   4x    frame=24323 fps=100 q=-0.0 size=N/A time=00:16:12.92 bitrate=N/A speed=   4x    frame=24377 fps=100 q=-0.0 size=N/A time=00:16:15.08 bitrate=N/A speed=   4x    frame=24427 fps=100 q=-0.0 size=N/A time=00:16:17.08 bitrate=N/A speed=   4x    frame=24480 fps=100 q=-0.0 size=N/A time=00:16:19.20 bitrate=N/A speed=   4x    frame=24530 fps=100 q=-0.0 size=N/A time=00:16:21.20 bitrate=N/A speed=   4x    frame=24582 fps=100 q=-0.0 size=N/A time=00:16:23.28 bitrate=N/A speed=   4x    frame=24633 fps=100 q=-0.0 size=N/A time=00:16:25.32 bitrate=N/A speed=   4x    frame=24686 fps=100 q=-0.0 size=N/A time=00:16:27.44 bitrate=N/A speed=   4x    frame=24737 fps=100 q=-0.0 size=N/A time=00:16:29.48 bitrate=N/A speed=   4x    frame=24788 fps=100 q=-0.0 size=N/A time=00:16:31.52 bitrate=N/A speed=   4x    frame=24841 fps=100 q=-0.0 size=N/A time=00:16:33.64 bitrate=N/A speed=   4x    frame=24891 fps=100 q=-0.0 size=N/A time=00:16:35.64 bitrate=N/A speed=   4x    frame=24944 fps=100 q=-0.0 size=N/A time=00:16:37.76 bitrate=N/A speed=   4x    frame=24996 fps=100 q=-0.0 size=N/A time=00:16:39.84 bitrate=N/A speed=   4x    frame=25048 fps=100 q=-0.0 size=N/A time=00:16:41.92 bitrate=N/A speed=   4x    frame=25098 fps=100 q=-0.0 size=N/A time=00:16:43.92 bitrate=N/A speed=   4x    frame=25152 fps=100 q=-0.0 size=N/A time=00:16:46.08 bitrate=N/A speed=   4x    frame=25201 fps=100 q=-0.0 size=N/A time=00:16:48.04 bitrate=N/A speed=   4x    frame=25253 fps=100 q=-0.0 size=N/A time=00:16:50.12 bitrate=N/A speed=   4x    frame=25304 fps=100 q=-0.0 size=N/A time=00:16:52.16 bitrate=N/A speed=   4x    frame=25356 fps=100 q=-0.0 size=N/A time=00:16:54.24 bitrate=N/A speed=   4x    frame=25407 fps=100 q=-0.0 size=N/A time=00:16:56.28 bitrate=N/A speed=   4x    frame=25461 fps=100 q=-0.0 size=N/A time=00:16:58.44 bitrate=N/A speed=   4x    frame=25511 fps=100 q=-0.0 size=N/A time=00:17:00.44 bitrate=N/A speed=   4x    frame=25565 fps=100 q=-0.0 size=N/A time=00:17:02.60 bitrate=N/A speed=   4x    frame=25617 fps=100 q=-0.0 size=N/A time=00:17:04.68 bitrate=N/A speed=   4x    frame=25670 fps=100 q=-0.0 size=N/A time=00:17:06.80 bitrate=N/A speed=   4x    frame=25719 fps=100 q=-0.0 size=N/A time=00:17:08.76 bitrate=N/A speed=   4x    frame=25773 fps=100 q=-0.0 size=N/A time=00:17:10.92 bitrate=N/A speed=   4x    frame=25823 fps=100 q=-0.0 size=N/A time=00:17:12.92 bitrate=N/A speed=   4x    frame=25876 fps=100 q=-0.0 size=N/A time=00:17:15.04 bitrate=N/A speed=   4x    frame=25926 fps=100 q=-0.0 size=N/A time=00:17:17.04 bitrate=N/A speed=   4x    frame=25980 fps=100 q=-0.0 size=N/A time=00:17:19.20 bitrate=N/A speed=   4x    frame=26031 fps=100 q=-0.0 size=N/A time=00:17:21.24 bitrate=N/A speed=   4x    frame=26084 fps=100 q=-0.0 size=N/A time=00:17:23.36 bitrate=N/A speed=   4x    frame=26136 fps=100 q=-0.0 size=N/A time=00:17:25.44 bitrate=N/A speed=   4x    frame=26186 fps=100 q=-0.0 size=N/A time=00:17:27.44 bitrate=N/A speed=   4x    frame=26238 fps=100 q=-0.0 size=N/A time=00:17:29.52 bitrate=N/A speed=   4x    frame=26289 fps=100 q=-0.0 size=N/A time=00:17:31.56 bitrate=N/A speed=   4x    frame=26340 fps=100 q=-0.0 size=N/A time=00:17:33.60 bitrate=N/A speed=   4x    frame=26391 fps=100 q=-0.0 size=N/A time=00:17:35.64 bitrate=N/A speed=   4x    frame=26444 fps=100 q=-0.0 size=N/A time=00:17:37.76 bitrate=N/A speed=   4x    frame=26494 fps=100 q=-0.0 size=N/A time=00:17:39.76 bitrate=N/A speed=   4x    frame=26548 fps=100 q=-0.0 size=N/A time=00:17:41.92 bitrate=N/A speed=   4x    frame=26598 fps=100 q=-0.0 size=N/A time=00:17:43.92 bitrate=N/A speed=   4x    frame=26652 fps=100 q=-0.0 size=N/A time=00:17:46.08 bitrate=N/A speed=   4x    frame=26702 fps=100 q=-0.0 size=N/A time=00:17:48.08 bitrate=N/A speed=   4x    frame=26754 fps=100 q=-0.0 size=N/A time=00:17:50.16 bitrate=N/A speed=   4x    frame=26806 fps=100 q=-0.0 size=N/A time=00:17:52.24 bitrate=N/A speed=   4x    frame=26859 fps=100 q=-0.0 size=N/A time=00:17:54.36 bitrate=N/A speed=   4x    frame=26909 fps=100 q=-0.0 size=N/A time=00:17:56.36 bitrate=N/A speed=   4x    frame=26963 fps=100 q=-0.0 size=N/A time=00:17:58.52 bitrate=N/A speed=   4x    frame=27012 fps=100 q=-0.0 size=N/A time=00:18:00.48 bitrate=N/A speed=   4x    frame=27064 fps=100 q=-0.0 size=N/A time=00:18:02.56 bitrate=N/A speed=   4x    frame=27116 fps=100 q=-0.0 size=N/A time=00:18:04.64 bitrate=N/A speed=   4x    frame=27171 fps=100 q=-0.0 size=N/A time=00:18:06.84 bitrate=N/A speed=   4x    frame=27220 fps=100 q=-0.0 size=N/A time=00:18:08.80 bitrate=N/A speed=   4x    frame=27274 fps=100 q=-0.0 size=N/A time=00:18:10.96 bitrate=N/A speed=   4x    frame=27324 fps=100 q=-0.0 size=N/A time=00:18:12.96 bitrate=N/A speed=   4x    frame=27376 fps=100 q=-0.0 size=N/A time=00:18:15.04 bitrate=N/A speed=   4x    frame=27426 fps=100 q=-0.0 size=N/A time=00:18:17.04 bitrate=N/A speed=   4x    frame=27480 fps=100 q=-0.0 size=N/A time=00:18:19.20 bitrate=N/A speed=   4x    frame=27530 fps=100 q=-0.0 size=N/A time=00:18:21.20 bitrate=N/A speed=   4x    frame=27584 fps=100 q=-0.0 size=N/A time=00:18:23.36 bitrate=N/A speed=   4x    frame=27634 fps=100 q=-0.0 size=N/A time=00:18:25.36 bitrate=N/A speed=   4x    frame=27684 fps=100 q=-0.0 size=N/A time=00:18:27.36 bitrate=N/A speed=   4x    frame=27735 fps=100 q=-0.0 size=N/A time=00:18:29.40 bitrate=N/A speed=   4x    frame=27785 fps=100 q=-0.0 size=N/A time=00:18:31.40 bitrate=N/A speed=   4x    frame=27837 fps=100 q=-0.0 size=N/A time=00:18:33.48 bitrate=N/A speed=   4x    frame=27888 fps=100 q=-0.0 size=N/A time=00:18:35.52 bitrate=N/A speed=   4x    frame=27940 fps=100 q=-0.0 size=N/A time=00:18:37.60 bitrate=N/A speed=   4x    frame=27990 fps=100 q=-0.0 size=N/A time=00:18:39.60 bitrate=N/A speed=   4x    frame=28044 fps=100 q=-0.0 size=N/A time=00:18:41.76 bitrate=N/A speed=   4x    frame=28094 fps=100 q=-0.0 size=N/A time=00:18:43.76 bitrate=N/A speed=   4x    frame=28148 fps=100 q=-0.0 size=N/A time=00:18:45.92 bitrate=N/A speed=   4x    frame=28198 fps=100 q=-0.0 size=N/A time=00:18:47.92 bitrate=N/A speed=   4x    frame=28253 fps=100 q=-0.0 size=N/A time=00:18:50.12 bitrate=N/A speed=   4x    frame=28302 fps=100 q=-0.0 size=N/A time=00:18:52.08 bitrate=N/A speed=   4x    frame=28355 fps=100 q=-0.0 size=N/A time=00:18:54.20 bitrate=N/A speed=   4x    frame=28404 fps=100 q=-0.0 size=N/A time=00:18:56.16 bitrate=N/A speed=   4x    frame=28458 fps=100 q=-0.0 size=N/A time=00:18:58.32 bitrate=N/A speed=   4x    frame=28508 fps=100 q=-0.0 size=N/A time=00:19:00.32 bitrate=N/A speed=   4x    frame=28562 fps=100 q=-0.0 size=N/A time=00:19:02.48 bitrate=N/A speed=   4x    frame=28611 fps=100 q=-0.0 size=N/A time=00:19:04.44 bitrate=N/A speed=   4x    frame=28665 fps=100 q=-0.0 size=N/A time=00:19:06.60 bitrate=N/A speed=   4x    frame=28715 fps=100 q=-0.0 size=N/A time=00:19:08.60 bitrate=N/A speed=   4x    frame=28768 fps=100 q=-0.0 size=N/A time=00:19:10.72 bitrate=N/A speed=   4x    frame=28820 fps=100 q=-0.0 size=N/A time=00:19:12.80 bitrate=N/A speed=   4x    frame=28872 fps=100 q=-0.0 size=N/A time=00:19:14.88 bitrate=N/A speed=   4x    frame=28922 fps=100 q=-0.0 size=N/A time=00:19:16.88 bitrate=N/A speed=   4x    frame=28977 fps=100 q=-0.0 size=N/A time=00:19:19.08 bitrate=N/A speed=   4x    frame=29026 fps=100 q=-0.0 size=N/A time=00:19:21.04 bitrate=N/A speed=   4x    frame=29078 fps=100 q=-0.0 size=N/A time=00:19:23.12 bitrate=N/A speed=   4x    frame=29129 fps=100 q=-0.0 size=N/A time=00:19:25.16 bitrate=N/A speed=   4x    frame=29181 fps=100 q=-0.0 size=N/A time=00:19:27.24 bitrate=N/A speed=   4x    frame=29230 fps=100 q=-0.0 size=N/A time=00:19:29.20 bitrate=N/A speed=   4x    frame=29283 fps=100 q=-0.0 size=N/A time=00:19:31.32 bitrate=N/A speed=   4x    frame=29334 fps=100 q=-0.0 size=N/A time=00:19:33.36 bitrate=N/A speed=   4x    frame=29385 fps=100 q=-0.0 size=N/A time=00:19:35.40 bitrate=N/A speed=   4x    frame=29437 fps=100 q=-0.0 size=N/A time=00:19:37.48 bitrate=N/A speed=   4x    frame=29488 fps=100 q=-0.0 size=N/A time=00:19:39.52 bitrate=N/A speed=   4x    frame=29541 fps=100 q=-0.0 size=N/A time=00:19:41.64 bitrate=N/A speed=   4x    frame=29590 fps=100 q=-0.0 size=N/A time=00:19:43.60 bitrate=N/A speed=   4x    frame=29643 fps=100 q=-0.0 size=N/A time=00:19:45.72 bitrate=N/A speed=   4x    frame=29694 fps=100 q=-0.0 size=N/A time=00:19:47.76 bitrate=N/A speed=   4x    frame=29747 fps=100 q=-0.0 size=N/A time=00:19:49.88 bitrate=N/A speed=   4x    frame=29798 fps=100 q=-0.0 size=N/A time=00:19:51.92 bitrate=N/A speed=   4x    frame=29853 fps=100 q=-0.0 size=N/A time=00:19:54.12 bitrate=N/A speed=   4x    frame=29902 fps=100 q=-0.0 size=N/A time=00:19:56.08 bitrate=N/A speed=   4x    frame=29954 fps=100 q=-0.0 size=N/A time=00:19:58.16 bitrate=N/A speed=   4x    frame=30003 fps=100 q=-0.0 size=N/A time=00:20:00.12 bitrate=N/A speed=   4x    frame=30057 fps=100 q=-0.0 size=N/A time=00:20:02.28 bitrate=N/A speed=   4x    frame=30106 fps=100 q=-0.0 size=N/A time=00:20:04.24 bitrate=N/A speed=   4x    frame=30161 fps=100 q=-0.0 size=N/A time=00:20:06.44 bitrate=N/A speed=   4x    frame=30211 fps=100 q=-0.0 size=N/A time=00:20:08.44 bitrate=N/A speed=   4x    frame=30264 fps=100 q=-0.0 size=N/A time=00:20:10.56 bitrate=N/A speed=   4x    frame=30315 fps=100 q=-0.0 size=N/A time=00:20:12.60 bitrate=N/A speed=   4x    frame=30368 fps=100 q=-0.0 size=N/A time=00:20:14.72 bitrate=N/A speed=   4x    frame=30418 fps=100 q=-0.0 size=N/A time=00:20:16.72 bitrate=N/A speed=   4x    frame=30471 fps=100 q=-0.0 size=N/A time=00:20:18.84 bitrate=N/A speed=   4x    frame=30521 fps=100 q=-0.0 size=N/A time=00:20:20.84 bitrate=N/A speed=   4x    frame=30575 fps=100 q=-0.0 size=N/A time=00:20:23.00 bitrate=N/A speed=   4x    frame=30626 fps=100 q=-0.0 size=N/A time=00:20:25.04 bitrate=N/A speed=   4x    frame=30678 fps=100 q=-0.0 size=N/A time=00:20:27.12 bitrate=N/A speed=   4x    frame=30728 fps=100 q=-0.0 size=N/A time=00:20:29.12 bitrate=N/A speed=   4x    frame=30779 fps=100 q=-0.0 size=N/A time=00:20:31.16 bitrate=N/A speed=   4x    frame=30832 fps=100 q=-0.0 size=N/A time=00:20:33.28 bitrate=N/A speed=   4x    frame=30883 fps=100 q=-0.0 size=N/A time=00:20:35.32 bitrate=N/A speed=   4x    frame=30934 fps=100 q=-0.0 size=N/A time=00:20:37.36 bitrate=N/A speed=   4x    frame=30986 fps=100 q=-0.0 size=N/A time=00:20:39.44 bitrate=N/A speed=   4x    frame=31036 fps=100 q=-0.0 size=N/A time=00:20:41.44 bitrate=N/A speed=   4x    frame=31087 fps=100 q=-0.0 size=N/A time=00:20:43.48 bitrate=N/A speed=   4x    frame=31139 fps=100 q=-0.0 size=N/A time=00:20:45.56 bitrate=N/A speed=   4x    frame=31190 fps=100 q=-0.0 size=N/A time=00:20:47.60 bitrate=N/A speed=   4x    frame=31243 fps=100 q=-0.0 size=N/A time=00:20:49.72 bitrate=N/A speed=   4x    frame=31291 fps=100 q=-0.0 size=N/A time=00:20:51.64 bitrate=N/A speed=   4x    frame=31336 fps=100 q=-0.0 size=N/A time=00:20:53.44 bitrate=N/A speed=   4x    frame=31388 fps=100 q=-0.0 size=N/A time=00:20:55.52 bitrate=N/A speed=   4x    frame=31436 fps=100 q=-0.0 size=N/A time=00:20:57.44 bitrate=N/A speed=   4x    frame=31486 fps=100 q=-0.0 size=N/A time=00:20:59.44 bitrate=N/A speed=   4x    frame=31537 fps=100 q=-0.0 size=N/A time=00:21:01.48 bitrate=N/A speed=   4x    frame=31587 fps=100 q=-0.0 size=N/A time=00:21:03.48 bitrate=N/A speed=   4x    frame=31638 fps=100 q=-0.0 size=N/A time=00:21:05.52 bitrate=N/A speed=   4x    frame=31686 fps=100 q=-0.0 size=N/A time=00:21:07.44 bitrate=N/A speed=   4x    frame=31739 fps=100 q=-0.0 size=N/A time=00:21:09.56 bitrate=N/A speed=   4x    frame=31787 fps=100 q=-0.0 size=N/A time=00:21:11.48 bitrate=N/A speed=3.99x    frame=31841 fps=100 q=-0.0 size=N/A time=00:21:13.64 bitrate=N/A speed=3.99x    frame=31891 fps=100 q=-0.0 size=N/A time=00:21:15.64 bitrate=N/A speed=3.99x    frame=31944 fps=100 q=-0.0 size=N/A time=00:21:17.76 bitrate=N/A speed=3.99x    frame=31992 fps=100 q=-0.0 size=N/A time=00:21:19.68 bitrate=N/A speed=3.99x    frame=32045 fps=100 q=-0.0 size=N/A time=00:21:21.80 bitrate=N/A speed=3.99x    frame=32095 fps=100 q=-0.0 size=N/A time=00:21:23.80 bitrate=N/A speed=3.99x    frame=32147 fps=100 q=-0.0 size=N/A time=00:21:25.88 bitrate=N/A speed=3.99x    frame=32195 fps=100 q=-0.0 size=N/A time=00:21:27.80 bitrate=N/A speed=3.99x    frame=32248 fps=100 q=-0.0 size=N/A time=00:21:29.92 bitrate=N/A speed=3.99x    frame=32296 fps=100 q=-0.0 size=N/A time=00:21:31.84 bitrate=N/A speed=3.99x    frame=32350 fps=100 q=-0.0 size=N/A time=00:21:34.00 bitrate=N/A speed=3.99x    frame=32400 fps=100 q=-0.0 size=N/A time=00:21:36.00 bitrate=N/A speed=3.99x    frame=32452 fps=100 q=-0.0 size=N/A time=00:21:38.08 bitrate=N/A speed=3.99x    frame=32504 fps=100 q=-0.0 size=N/A time=00:21:40.16 bitrate=N/A speed=3.99x    frame=32556 fps=100 q=-0.0 size=N/A time=00:21:42.24 bitrate=N/A speed=3.99x    frame=32608 fps=100 q=-0.0 size=N/A time=00:21:44.32 bitrate=N/A speed=3.99x    frame=32660 fps=100 q=-0.0 size=N/A time=00:21:46.40 bitrate=N/A speed=3.99x    frame=32711 fps=100 q=-0.0 size=N/A time=00:21:48.44 bitrate=N/A speed=3.99x    frame=32760 fps=100 q=-0.0 size=N/A time=00:21:50.40 bitrate=N/A speed=3.99x    frame=32812 fps=100 q=-0.0 size=N/A time=00:21:52.48 bitrate=N/A speed=3.99x    frame=32863 fps=100 q=-0.0 size=N/A time=00:21:54.52 bitrate=N/A speed=3.99x    frame=32916 fps=100 q=-0.0 size=N/A time=00:21:56.64 bitrate=N/A speed=3.99x    frame=32965 fps=100 q=-0.0 size=N/A time=00:21:58.60 bitrate=N/A speed=3.99x    frame=33018 fps=100 q=-0.0 size=N/A time=00:22:00.72 bitrate=N/A speed=3.99x    frame=33068 fps=100 q=-0.0 size=N/A time=00:22:02.72 bitrate=N/A speed=3.99x    frame=33121 fps=100 q=-0.0 size=N/A time=00:22:04.84 bitrate=N/A speed=3.99x    frame=33171 fps=100 q=-0.0 size=N/A time=00:22:06.84 bitrate=N/A speed=3.99x    frame=33223 fps=100 q=-0.0 size=N/A time=00:22:08.92 bitrate=N/A speed=3.99x    frame=33271 fps=100 q=-0.0 size=N/A time=00:22:10.84 bitrate=N/A speed=3.99x    frame=33323 fps=100 q=-0.0 size=N/A time=00:22:12.92 bitrate=N/A speed=3.99x    frame=33373 fps=100 q=-0.0 size=N/A time=00:22:14.92 bitrate=N/A speed=3.99x    frame=33425 fps=100 q=-0.0 size=N/A time=00:22:17.00 bitrate=N/A speed=3.99x    frame=33476 fps=100 q=-0.0 size=N/A time=00:22:19.04 bitrate=N/A speed=3.99x    frame=33528 fps=100 q=-0.0 size=N/A time=00:22:21.12 bitrate=N/A speed=3.99x    frame=33577 fps=100 q=-0.0 size=N/A time=00:22:23.08 bitrate=N/A speed=3.99x    frame=33630 fps=100 q=-0.0 size=N/A time=00:22:25.20 bitrate=N/A speed=3.99x    frame=33680 fps=100 q=-0.0 size=N/A time=00:22:27.20 bitrate=N/A speed=3.99x    frame=33735 fps=100 q=-0.0 size=N/A time=00:22:29.40 bitrate=N/A speed=3.99x    frame=33786 fps=100 q=-0.0 size=N/A time=00:22:31.44 bitrate=N/A speed=3.99x    frame=33839 fps=100 q=-0.0 size=N/A time=00:22:33.56 bitrate=N/A speed=3.99x    frame=33890 fps=100 q=-0.0 size=N/A time=00:22:35.60 bitrate=N/A speed=3.99x    frame=33944 fps=100 q=-0.0 size=N/A time=00:22:37.76 bitrate=N/A speed=3.99x    frame=33993 fps=100 q=-0.0 size=N/A time=00:22:39.72 bitrate=N/A speed=3.99x    frame=34046 fps=100 q=-0.0 size=N/A time=00:22:41.84 bitrate=N/A speed=3.99x    frame=34097 fps=100 q=-0.0 size=N/A time=00:22:43.88 bitrate=N/A speed=3.99x    frame=34148 fps=100 q=-0.0 size=N/A time=00:22:45.92 bitrate=N/A speed=3.99x    frame=34200 fps=100 q=-0.0 size=N/A time=00:22:48.00 bitrate=N/A speed=3.99x    frame=34201 fps=100 q=-0.0 size=N/A time=00:22:49.46 bitrate=N/A speed=3.99x    [Parsed_libvmaf_10 @ 0000023b63b7ffc0] VMAF score: 4.704181
frame=34201 fps=100 q=-0.0 size=N/A time=00:22:49.46 bitrate=N/A speed=3.99x    [out#0/null @ 0000023b61e77800] video:14696KiB audio:245936KiB subtitle:0KiB other streams:0KiB global headers:0KiB muxing overhead: unknown
frame=34201 fps= 99 q=-0.0 Lsize=N/A time=00:22:48.04 bitrate=N/A speed=3.98x    
